# xmcd
# 
# Track frame offsets:
#     150
#     17384
#     29480
#     59864
#     84648
#     105557
#     117189
#     140657
#     150425
# 
# Disc length: 2284
# 
# Revision: 3
# Processed by: cddbd v1.5.2PL0 Copyright (c) Steve Scherf et al.
# Submitted via: BonkEnc v1.0.15
# 
DISCID=7108ea09
DTITLE=Various Artist - hallo Nr.1
DYEAR=1972
DGENRE=Rock - Pop - Ostrock
TTITLE0=Rote Gitarren - Es brennen die Berge und Wälder
TTITLE1=Die Nautiks - Ich steh' allein in dieser Stadt
TTITLE2=Puhdys - Geh dem Wind nicht aus dem Wege
TTITLE3=Panta Rhei - Blues für John Henry
TTITLE4=Joco-Dev-Sextett - Wir lagen im Grase
TTITLE5=Scirocco Combo - Wege mit gutem Namen
TTITLE6=Bayon - Stell dich mitten in den Regen
TTITLE7=Rote Gitarren - Anfang
TTITLE8=Panta Rhei - Aus und vorbei
EXTD=
EXTT0=
EXTT1=
EXTT2=
EXTT3=
EXTT4=
EXTT5=
EXTT6=
EXTT7=
EXTT8=
PLAYORDER=
